PathFileType	4	(X/Y/Z)	T1_P1_Vision_NoMovement_1_0-649.trc
DataRate	CameraRate	NumFrames	NumMarkers	Units	OrigDataRate	OrigDataStartFrame	OrigNumFrames
60	60	4	27	m	60	567	649
Frame#	Time	RHip			RKnee			RAnkle			RBigToe			RSmallToe			RHeel			LHip			LKnee			LAnkle			LBigToe			LSmallToe			LHeel			Neck			Head			Nose			RShoulder			RElbow			RWrist			RThumb			RIndex			RPinky			LShoulder			LElbow			LWrist			LThumb			LIndex			LPinky		
		X1	Y1	Z1	X2	Y2	Z2	X3	Y3	Z3	X4	Y4	Z4	X5	Y5	Z5	X6	Y6	Z6	X7	Y7	Z7	X8	Y8	Z8	X9	Y9	Z9	X10	Y10	Z10	X11	Y11	Z11	X12	Y12	Z12	X13	Y13	Z13	X14	Y14	Z14	X15	Y15	Z15	X16	Y16	Z16	X17	Y17	Z17	X18	Y18	Z18	X19	Y19	Z19	X20	Y20	Z20	X21	Y21	Z21	X22	Y22	Z22	X23	Y23	Z23	X24	Y24	Z24	X25	Y25	Z25	X26	Y26	Z26	X27	Y27	Z27
568	9.466666666666667	-66.22118307619397	3789.3777887503306	-546.0500814745169	284.44850500346763	3975.352390830542	-526.3361321611326	639.0110384987825	4153.594502852292	-532.5367197524157	688.5350132327632	4010.24349139212	-456.3297379127865	688.1116516225006	3965.9328603199356	-497.3982364719494	686.3753084271367	4220.976463923091	-549.1459475188643	-102.46768930691715	3905.7873492369595	-364.17373450033085	241.07833657628103	4004.6538531053	-370.44106032871565	627.1701984411604	4257.118171685656	-457.9446573203204	664.324829933583	3993.285396991006	-350.59069276303535	676.2707147415936	4124.248029521862	-345.2493063271829	676.8481856171403	4322.699875281145	-499.1844007001242	-679.5337285433762	3685.5001773227086	-497.7544117596147	-916.5119560665902	3539.6643515588994	-431.628083567127	-782.9945296312495	3552.919879332015	-403.47716647028636	-558.5586517815963	3652.364204579074	-644.5622795789403	-282.95861492449654	3751.3695074618854	-705.38941845554	-28.74117334096955	3678.439963523572	-601.5634495624383	85.92097306640034	3777.2782369097986	-560.0958939884794	108.79201977897735	3773.1641438352617	-567.3416608789574	95.05073729019986	3761.406550338563	-589.6836488550251	-612.654022481179	3774.290149651477	-371.21855376297674	-391.90777119160805	3981.604626320748	-346.4374280325973	-127.28358073752364	3939.678896534774	-242.33934005768495	15.16985366574402	3884.864253619603	-267.87201652256493	21.548125100421792	3904.6600362706836	-213.84031087247874	-1.982437431126952	3976.337904662347	-217.43210803944086
569	9.483333333333333	-66.29445651603785	3789.493983002849	-546.0426597182837	284.5547675725457	3975.834563786376	-526.5317635434418	645.3573534804478	4155.970445567629	-531.6688604893593	694.3784775150818	4013.744318886397	-455.6981483764197	687.8263269773936	3965.9742186835506	-497.26286409872	675.7457375318459	4165.496705261173	-526.2395966647294	-107.47452892108481	3902.309096223219	-362.6962199344518	241.30611295910683	4004.691674748848	-370.46628590051114	620.852092500873	4253.052430853031	-455.9327816191996	670.298753245217	3997.931195381771	-350.1972077754384	672.9539565989307	4149.745636816295	-348.2079773680871	672.3793691781316	4323.081759784008	-499.8697744469384	-679.5563885552531	3685.4566020948314	-497.7583446886324	-916.5107597931585	3539.6351469657957	-431.59732538694163	-782.9885007738261	3552.866755136689	-403.48994458996407	-558.5813607620643	3652.196099931914	-644.4689735990142	-282.9923221619832	3751.308208425465	-705.391804730366	-28.782428694242583	3678.055041404979	-601.3793530520362	85.08401575625415	3751.0550108431858	-553.4006711772605	103.9901716015717	3770.4405594561586	-567.4980413385128	105.3673701584013	3764.63647453469	-590.8316917599368	-612.6261824403387	3774.408661404504	-371.25197821650727	-391.906852981287	3981.552507093868	-346.4925324581598	-127.22945854111865	3939.7469660882975	-242.42219794017953	16.38000950412058	3903.2431562688103	-280.4578024725897	21.48633627028111	3904.6153539027982	-213.85085215367235	-2.002569576563144	3976.6445424678222	-217.46754473742047
570	9.5	-66.29106459429387	3789.273944104841	-545.952173282812	284.5324754808885	3975.941894989536	-526.6336288573358	645.2324826108547	4155.969950725403	-531.7029395160447	699.7827394631862	4035.765460411422	-472.9995768583782	692.8691681299492	3986.2910194381857	-512.0790554570557	668.6800883936776	4160.762175305553	-523.8248303808684	-107.50258686809251	3902.0195930253412	-362.5101023767052	241.27743339178022	4004.2452942700916	-370.1642494212455	620.5955990934008	4252.259900785508	-455.66911030786486	670.4583887865595	3998.3020688793504	-350.4240065234268	680.5166077704288	4154.649755694364	-350.29361471782425	671.9603093539678	4322.102037491492	-499.24840948874	-679.5389525690811	3685.4994049316088	-497.7625921324828	-916.5213298249263	3539.763999973362	-431.64532297498425	-782.984063741586	3552.771444558147	-403.4766229495724	-558.5791687235774	3652.466981670901	-644.6460943349542	-282.95309591551273	3751.2763275901075	-705.3402911953965	-33.99926218010184	3675.112947530495	-599.9478467203223	85.15876218172329	3751.3361908290094	-553.5694693448213	108.36915265425027	3773.3385656102187	-567.7467334821777	99.25567016950077	3761.629244650713	-589.4607900877166	-612.6285555426903	3774.3661006158923	-371.2658835895539	-391.92471775788187	3981.556738011302	-346.49763747789086	-127.22882661949234	3939.9062114367985	-242.4488657305251	16.440442859328158	3903.336966227433	-280.5373574769694	21.449596093566342	3877.9661081706267	-209.55778740533745	3.4326743942728863	3978.1513247655794	-216.72093504703926
571	9.516666666666667	-66.31774494499156	3789.349570378737	-545.9246401081357	284.4946163696495	3976.031938750759	-526.6239869910052	645.3675901603572	4156.850486257231	-531.8327116524077	699.5385213405931	4034.678178957523	-470.02642628299935	685.4886724410686	3981.0926006701466	-502.92853568101793	680.7126721004713	4196.972194305431	-532.7146232332708	-102.53980311096223	3905.608009975958	-363.9660046852881	235.94707558852426	4002.0623015209976	-370.966163724157	627.0025356782738	4257.070102100723	-457.9569780589914	664.631277517622	3994.592536777096	-350.95177895753216	680.6949716782382	4154.162808076103	-350.18252283510407	671.9825585484724	4322.290039173857	-499.25225621498043	-679.5578192760809	3685.5472122232563	-497.7887238909461	-916.5781272821308	3539.6999605821693	-431.6457605603223	-783.0221191733705	3552.910567353119	-403.5624299097467	-558.6065067493345	3652.5086434601967	-644.647687133365	-288.2046468186105	3748.0189518920656	-703.893463894121	-34.053191615336985	3675.2114610988415	-600.0225388146051	80.91927894363289	3774.1000126237745	-558.5461840870906	113.37191703887119	3773.54717474772	-567.3941799568447	99.13687998625188	3762.0086096454406	-589.5806900916399	-612.6265783940146	3774.285348708271	-371.2090189294783	-391.91420018871736	3981.6289967204143	-346.536231290188	-127.14019393861754	3939.8167391394545	-242.38396944388884	15.535134061692498	3899.798978647695	-273.0145142312101	21.60659823135315	3904.564515939764	-213.77495149214218	-1.8684584864349834	3976.5222088937635	-217.41909356181387
